<svg data-v-73fdaaa2="" version="1.0" xmlns="http://www.w3.org/2000/svg" xmlns:xlink="http://www.w3.org/1999/xlink" width="100%" height="100%" viewBox="0 0 340.000000 250.000000" preserveAspectRatio="xMidYMid meet" color-interpolation-filters="sRGB" class="el-tooltip" style="margin: auto;">
<!-- <rect data-v-73fdaaa2="" x="0" y="0" width="100%" height="100%" fill="#fff" fill-opacity="1"></rect> -->
 <!-- <rect data-v-73fdaaa2="" x="0" y="0" width="100%" height="100%" fill="url(#watermark)" fill-opacity="1" class="watermarklayer"></rect> -->
  <g data-v-73fdaaa2="" fill="#888" class="bordersvg" transform="translate(75.01884460449219,70.68250274658203)"><path fill-opacity="0" stroke="#888" stroke-width="3" d="M 88.63500213623047 27.10595703125 A 54.317501068115234 54.317501068115234 0 1 1 88.63500213623047 81.52904510498047"></path> <g transform="translate(0,27.10595703125)"><rect stroke-width="2" x="0" y="0" width="177.27000427246094" height="54.42308807373047" fill-opacity="0"></rect> <!----> <!----> <g transform="translate(10,3)"><g class="tp-name" transform="translate(0,0)"><g><path transform="translate(-2.421875,30.400390625)" d="M33.36-25.55L33.36-25.55L33.36-25.55Q32.54-26.17 31.29-26.37L31.29-26.37L31.29-26.37Q30.04-26.56 28.98-27.03L28.98-27.03L28.98-27.03Q27.62-27.15 26.46-27.54L26.46-27.54L26.46-27.54Q25.31-27.93 23.91-28.05L23.91-28.05L23.91-28.05Q23.44-27.81 23.20-27.34L23.20-27.34L23.20-27.34Q23.48-22.58 23.59-17.42L23.59-17.42L23.59-17.42Q17.54-17.42 11.25-17.27L11.25-17.27L11.25-17.27Q11.25-17.03 11.25-16.64L11.25-16.64L11.25-16.64Q11.29-22.42 10.86-27.73L10.86-27.73L10.86-27.73Q8.48-27.34 6.31-27.50L6.31-27.50L6.31-27.50Q4.14-27.66 2.42-26.64L2.42-26.64L2.42-26.64Q2.89-18.16 4.06-10.23L4.06-10.23L4.06-10.23Q4.10-7.42 4.22-4.67L4.22-4.67L4.22-4.67Q4.34-1.91 5.31-0.16L5.31-0.16L5.31-0.16Q8.95-0.86 11.17-2.81L11.17-2.81L11.17-2.81Q11.09-9.10 11.25-15.47L11.25-15.47L11.25-15.47Q11.25-13.75 11.25-12.50L11.25-12.50L11.25-12.50Q11.99-12.11 12.73-12.42L12.73-12.42L12.73-12.42Q15.08-12.89 17.42-13.13L17.42-13.13L17.42-13.13Q18.40-13.55 19.84-13.52L19.84-13.52L19.84-13.52Q21.17-13.71 22.34-13.98L22.34-13.98L22.34-13.98Q23.05-14.02 23.75-14.06L23.75-14.06L23.75-14.06Q23.79-11.91 23.91-9.77L23.91-9.77L23.91-9.77Q23.59-5.74 24.45-2.03L24.45-2.03L24.45-2.03Q28.79-2.03 33.13-2.03L33.13-2.03L33.13-2.03Q33.59-13.79 33.36-25.55ZM12.89-14.69L12.89-14.69L12.89-14.69Q12.50-14.57 12.58-15L12.58-15L12.58-15Q12.93-15.20 12.89-14.69ZM13.98-14.69L13.98-14.69L13.98-14.69Q13.63-14.57 13.59-15L13.59-15L13.59-15Q13.67-15.04 13.75-15.16L13.75-15.16L13.75-15.16Q13.98-15.27 13.98-14.69ZM16.95-14.77L16.95-14.77L16.95-14.77Q16.99-14.92 17.03-15.08L17.03-15.08L17.03-15.08Q17.11-15.08 17.19-15.08L17.19-15.08L17.19-15.08Q17.27-14.69 16.95-14.77ZM17.58-15L17.58-15L17.58-15Q17.89-15.08 18.05-14.92L18.05-14.92L18.05-14.92Q17.77-14.38 17.58-15ZM19.69-14.77L19.69-14.77L19.69-14.77Q19.73-14.92 19.77-15.08L19.77-15.08L19.77-15.08Q19.84-15.08 19.92-15.08L19.92-15.08L19.92-15.08Q20-14.69 19.69-14.77ZM39.38-4.69L39.38-4.69L39.38-4.69Q40.66-1.76 45.08-0.31L45.08-0.31L45.08-0.31Q48.95 0.27 52.05-0.33L52.05-0.33L52.05-0.33Q55.16-0.94 56.80-2.73L56.80-2.73L53.52-5.47L53.52-5.47Q52.85-4.22 51.04-3.14L51.04-3.14L51.04-3.14Q49.22-2.07 47.03-2.66L47.03-2.66L47.03-2.66Q45.63-3.13 45.25-4.30L45.25-4.30L45.25-4.30Q44.88-5.47 45-6.64L45-6.64L45-6.64Q45.04-7.07 45.16-7.50L45.16-7.50L45.16-7.50Q51.25-7.38 56.88-7.34L56.88-7.34L56.88-7.34Q57.77-11.41 56.09-13.57L56.09-13.57L56.09-13.57Q54.41-15.74 51.80-16.02L51.80-16.02L51.80-16.02Q43.71-16.84 40.72-13.36L40.72-13.36L40.72-13.36Q37.73-9.88 39.38-4.69ZM51.41-12.34L51.41-12.34L51.41-12.34Q54.41-12.19 55.06-11.00L55.06-11.00L55.06-11.00Q55.70-9.80 55.39-8.67L55.39-8.67L55.39-8.67Q51.25-8.75 47.42-8.67L47.42-8.67L47.42-8.67Q46.48-8.67 45.55-8.67L45.55-8.67L45.55-8.67Q47.15-11.80 51.41-12.34ZM76.25-16.41L76.25-16.41L76.25-16.41Q74.45-14.57 73.44-12.11L73.44-12.11L73.44-12.11Q72.30-9.84 71.41-7.58L71.41-7.58L71.41-7.58Q70.90-6.88 70.47-6.17L70.47-6.17L70.47-6.17Q70.20-6.64 69.45-7.11L69.45-7.11L69.45-7.11Q69.65-7.50 69.10-7.93L69.10-7.93L69.10-7.93Q68.55-8.36 68.67-8.83L68.67-8.83L68.67-8.83Q68.32-9.02 68.05-9.22L68.05-9.22L68.05-9.22Q67.73-10.04 66.97-10.82L66.97-10.82L66.97-10.82Q66.21-11.60 65.94-12.42L65.94-12.42L65.94-12.42Q65.23-12.89 65.06-13.34L65.06-13.34L65.06-13.34Q64.88-13.79 64.30-14.22L64.30-14.22L64.30-14.22Q63.13-14.41 62.03-13.52L62.03-13.52L62.03-13.52Q63.40-11.33 64.77-8.98L64.77-8.98L64.77-8.98Q65.51-7.93 66.25-6.72L66.25-6.72L66.25-6.72Q66.60-5.55 67.89-4.38L67.89-4.38L67.89-4.38Q67.73-3.79 68.59-3.20L68.59-3.20L68.59-3.20Q68.63-3.20 68.67-3.20L68.67-3.20L68.67-3.20Q67.34-1.25 64.88 2.13L64.88 2.13L64.88 2.13Q62.42 5.51 61.41 6.64L61.41 6.64L61.41 6.64Q62.81 6.64 63.75 7.58L63.75 7.58L63.75 7.58Q69.26 4.18 74.02-1.70L74.02-1.70L74.02-1.70Q78.79-7.58 81.25-11.64L81.25-11.64L81.25-11.64Q80.27-13.40 78.85-14.26L78.85-14.26L78.85-14.26Q77.42-15.12 76.25-16.41ZM112.19-23.28L112.19-23.28L112.19-23.28Q112.38-24.34 112.81-25.23L112.81-25.23L112.81-25.23Q111.88-25.51 110.23-25.39L110.23-25.39L110.23-25.39Q110.08-25.35 110-25.31L110-25.31L110-25.31Q109.77-24.38 109.84-23.20L109.84-23.20L109.84-23.20Q111.13-23.01 112.19-23.28ZM96.80-24.61L96.80-24.61L96.80-24.61Q97.38-24.61 97.81-24.61L97.81-24.61L97.81-24.61Q98.16-24.30 98.52-23.98L98.52-23.98L98.52-23.98Q99.10-23.32 100-22.89L100-22.89L100-22.89Q100.78-23.01 101.41-23.20L101.41-23.20L101.41-23.20Q102.19-23.36 102.58-23.75L102.58-23.75L102.58-23.75Q102.77-23.91 102.27-24.14L102.27-24.14L102.27-24.14Q102.19-24.61 102.11-24.92L102.11-24.92L102.11-24.92Q101.99-25.04 101.88-25.16L101.88-25.16L101.88-25.16Q102.50-25.31 103.20-25.31L103.20-25.31L104.45-25.31L104.45-25.31Q105-23.83 104.38-22.19L104.38-22.19L104.38-22.19Q103.20-22.19 101.29-22.19L101.29-22.19L101.29-22.19Q99.38-22.19 98.20-22.19L98.20-22.19L98.20-22.19Q98.16-21.29 98.42-20.59L98.42-20.59L98.42-20.59Q98.67-19.88 98.52-19.14L98.52-19.14L98.52-19.14Q100-19.02 101.99-19.22L101.99-19.22L101.99-19.22Q103.98-19.41 105-19.14L105-19.14L105-19.14Q105.12-18.95 105-18.75L105-18.75L105-18.75Q104.53-18.87 103.91-18.98L103.91-18.98L103.91-18.98Q103.87-18.87 103.83-18.75L103.83-18.75L103.83-18.75Q103.83-18.28 103.83-17.89L103.83-17.89L103.83-17.89Q103.67-17.81 103.52-17.81L103.52-17.81L103.52-17.81Q103.52-17.50 103.67-17.44L103.67-17.44L103.67-17.44Q103.83-17.38 103.52-17.11L103.52-17.11L103.52-17.11Q102.62-17.50 102.19-17.03L102.19-17.03L102.19-17.03Q101.76-16.56 101.33-16.25L101.33-16.25L101.33-16.25Q100.98-16.45 100.86-16.37L100.86-16.37L100.86-16.37Q100.74-16.29 100.16-16.25L100.16-16.25L100.16-16.25Q99.26-15.59 98.01-15.16L98.01-15.16L98.01-15.16Q96.76-14.73 95.86-14.06L95.86-14.06L95.86-14.06Q97.66-12.77 99.53-11.56L99.53-11.56L99.53-11.56Q101.56-13.09 103.83-14.45L103.83-14.45L103.83-14.45Q103.83-14.34 103.83-14.30L103.83-14.30L103.83-14.30Q104.14-12.77 103.75-11.56L103.75-11.56L103.75-11.56Q102.46-11.68 101.48-11.41L101.48-11.41L101.48-11.41Q101.02-11.52 99.12-11.50L99.12-11.50L99.12-11.50Q97.23-11.48 96.72-11.41L96.72-11.41L96.72-11.41Q96.72-10.35 96.80-9.30L96.80-9.30L96.80-9.30Q97.07-5.82 97.19-2.58L97.19-2.58L97.19-2.58Q97.11-1.56 97.50-0.78L97.50-0.78L97.50-0.78Q100.70-1.02 105.12-1.25L105.12-1.25L105.12-1.25Q109.53-1.48 112.66-1.72L112.66-1.72L112.66-1.72Q113.55-4.14 114.22-6.64L114.22-6.64L114.22-6.64Q114.92-9.14 115.63-11.72L115.63-11.72L115.63-11.72Q111.72-11.72 107.81-11.72L107.81-11.72L107.81-11.72Q107.81-11.95 107.89-12.19L107.89-12.19L107.89-12.19Q108.55-12.42 108.36-12.89L108.36-12.89L108.36-12.89Q108.52-13.83 108.36-14.96L108.36-14.96L108.36-14.96Q108.20-16.09 108.67-16.80L108.67-16.80L108.67-16.80Q108.71-16.05 109.10-15.57L109.10-15.57L109.10-15.57Q109.49-15.08 109.61-14.45L109.61-14.45L109.61-14.45Q111.25-14.69 112.97-14.77L112.97-14.77L112.97-14.77Q112.73-15.63 112.07-16.23L112.07-16.23L112.07-16.23Q111.41-16.84 111.09-17.66L111.09-17.66L111.09-17.66Q110.23-17.73 109.45-17.58L109.45-17.58L109.45-17.58Q108.67-17.42 108.36-17.66L108.36-17.66L108.36-17.66Q108.36-18.63 108.36-19.69L108.36-19.69L108.36-19.69Q109.61-19.69 110.86-19.69L110.86-19.69L110.86-19.69Q110.74-20.39 110.86-21.13L110.86-21.13L110.86-21.13Q110.98-21.88 110.86-22.19L110.86-22.19L110.86-22.19Q110.20-22.27 109.39-22.21L109.39-22.21L109.39-22.21Q108.59-22.15 108.36-22.34L108.36-22.34L108.36-22.34Q108.36-24.22 108.36-25.94L108.36-25.94L108.36-25.94Q108.44-25.94 108.52-26.02L108.52-26.02L108.52-26.02Q108.87-26.25 109.30-26.33L109.30-26.33L109.30-26.33Q110.66-26.13 111.80-26.64L111.80-26.64L111.80-26.64Q111.91-28.59 111.64-30.31L111.64-30.31L111.64-30.31Q111.05-30.43 110.31-30.39L110.31-30.39L110.31-30.39Q109.61-30.23 108.98-29.92L108.98-29.92L108.98-29.92Q108.44-29.88 107.66-29.84L107.66-29.84L107.66-29.84Q107.15-29.49 106.29-29.41L106.29-29.41L106.29-29.41Q105.43-29.34 104.92-28.98L104.92-28.98L104.92-28.98Q103.98-28.95 103.32-28.71L103.32-28.71L103.32-28.71Q102.66-28.48 101.72-28.44L101.72-28.44L101.72-28.44Q98.63-27.77 95.78-26.88L95.78-26.88L95.78-26.88Q95.82-26.21 96.33-25.78L96.33-25.78L96.33-25.78Q96.45-25.08 96.80-24.61ZM97.73-12.89L97.73-12.89L97.73-12.89Q98.01-13.24 98.46-13.05L98.46-13.05L98.46-13.05Q98.91-12.85 99.22-12.73L99.22-12.73L99.22-12.73Q99.02-12.42 98.54-12.64L98.54-12.64L98.54-12.64Q98.05-12.85 97.73-12.89ZM110.47-27.34L110.47-27.34L110.47-27.34Q110.86-27.46 110.86-27.11L110.86-27.11L110.86-27.11Q110.66-27.11 110.47-27.11L110.47-27.11L110.47-27.11Q110.47-27.23 110.47-27.34ZM108.75-27.34L108.75-27.34L108.75-27.34Q109.06-27.34 109.38-27.34L109.38-27.34L109.38-27.34Q109.38-26.99 108.75-27.11L108.75-27.11L108.75-27.11Q108.75-27.23 108.75-27.34ZM106.56-20.16L106.56-20.16L106.56-20.16Q106.60-19.96 106.25-20L106.25-20L106.25-20Q106.25-20.20 106.56-20.16ZM107.42-21.02L107.42-21.02L107.42-21.02Q107.54-20.82 107.19-20.86L107.19-20.86L107.19-20.86Q107.15-21.05 107.42-21.02ZM103.83-15.78L103.83-15.78L103.83-15.78Q103.83-15.78 103.83-15.78L103.83-15.78L103.83-15.78Q103.83-15.51 103.83-15.23L103.83-15.23L103.83-15.23Q103.36-15.51 103.83-15.78ZM129.61-23.28L139.22-23.52L139.38-21.64L139.38-21.64Q138.83-21.88 138.36-21.88L138.36-21.88L138.36-21.88Q138.16-21.52 137.97-21.17L137.97-21.17L137.97-21.17Q137.73-19.96 137.29-18.98L137.29-18.98L137.29-18.98Q136.84-18.01 136.80-16.48L136.80-16.48L136.80-16.48Q136.52-16.37 136.33-16.02L136.33-16.02L136.33-16.02Q134.57-15.78 132.81-15.55L132.81-15.55L133.44-13.59L133.44-13.59Q134.41-13.63 135.63-13.75L135.63-13.75L135.63-13.75Q135.55-13.55 135.31-13.44L135.31-13.44L135.31-13.44Q135.31-12.85 135.31-12.27L135.31-12.27L135.31-12.27Q134.49-10.94 134.06-9.12L134.06-9.12L134.06-9.12Q133.63-7.30 132.81-5.94L132.81-5.94L132.81-5.94Q132.81-4.73 132.40-3.93L132.40-3.93L132.40-3.93Q131.99-3.13 131.88-1.95L131.88-1.95L131.88-1.95Q132.62-0.55 134.53-0.55L134.53-0.55L134.53-0.55Q136.33-4.96 138.13-9.22L138.13-9.22L138.13-9.22Q139.06-11.45 139.84-13.67L139.84-13.67L139.84-13.67Q140-13.87 140-14.06L140-14.06L140-14.06Q141.09-14.06 141.56-13.91L141.56-13.91L141.56-13.91Q141.41-12.42 141.37-12.01L141.37-12.01L141.37-12.01Q141.33-11.60 141.35-11.48L141.35-11.48L141.35-11.48Q141.37-11.37 141.37-10.78L141.37-10.78L141.37-10.78Q141.37-10.20 141.33-8.36L141.33-8.36L141.33-8.36Q140.86-8.05 139.77-8.05L139.77-8.05L139.77-8.05Q140.08-5.74 140-3.28L140-3.28L140-3.28Q139.92-0.82 140.16 1.02L140.16 1.02L140.16 1.02Q143.59 0.27 147.11-0.39L147.11-0.39L147.11-0.39Q147.07-2.89 147.09-4.32L147.09-4.32L147.09-4.32Q147.11-5.74 147.13-6.74L147.13-6.74L147.13-6.74Q147.15-7.73 147.11-9.06L147.11-9.06L147.11-9.06Q147.07-10.39 146.88-12.73L146.88-12.73L146.88-12.73Q146.60-11.95 146.02-12.23L146.02-12.23L146.02-12.23Q145.43-12.50 144.77-12.50L144.77-12.50L144.77-12.50Q144.65-12.07 144.06-12.19L144.06-12.19L144.06-12.19Q143.79-11.88 143.59-11.48L143.59-11.48L143.59-11.48Q143.40-11.09 142.97-11.64L142.97-11.64L142.97-11.64Q143.95-12.97 145.23-13.91L145.23-13.91L145.23-13.91Q145.63-13.87 145.64-13.42L145.64-13.42L145.64-13.42Q145.66-12.97 146.17-13.05L146.17-13.05L146.17-13.05Q146.29-13.75 147.11-13.59L147.11-13.59L147.11-13.59Q147.11-15.59 147.11-17.58L147.11-17.58L147.11-17.58Q143.59-17.27 141.33-16.95L141.33-16.95L141.33-16.95Q141.52-17.54 141.56-18.36L141.56-18.36L141.56-18.36Q142.50-19.02 142.50-20.70L142.50-20.70L142.50-20.70Q141.25-21.09 140-21.48L140-21.48L143.91-21.64L144.06-23.67L147.19-23.75L147.27-21.95L152.27-21.95L152.27-23.83L159.69-24.06L159.69-25.08L152.34-25L152.50-29.77L147.03-29.38L147.19-24.92L144.22-24.92L144.53-28.52L138.91-28.52L139.14-24.84L129.61-24.77L129.61-23.28ZM145.47-9.22L145.47-9.22L145.47-9.22Q145.43-8.63 144.77-8.75L144.77-8.75L144.77-8.75Q144.77-9.65 145.47-9.22ZM144.22-10.39L144.22-10.39L144.22-10.39Q144.14-10.39 144.06-10.23L144.06-10.23L144.06-10.23Q143.98-10.31 143.98-10.63L143.98-10.63L143.98-10.63Q144.22-10.63 144.22-10.39ZM144.38-16.64L144.38-16.64L144.38-16.64Q144.38-16.21 143.75-16.25L143.75-16.25L143.75-16.25Q143.83-17.15 144.38-16.64ZM142.19-7.89L142.19-7.89L142.19-7.89Q142.07-7.89 141.95-7.89L141.95-7.89L141.95-7.89Q141.95-8.16 141.95-8.44L141.95-8.44L141.95-8.44Q142.23-8.44 142.34-8.28L142.34-8.28L142.34-8.28Q142.27-8.09 142.19-7.89ZM142.27-11.88L142.27-11.88L142.27-11.88Q142.15-11.60 141.80-11.64L141.80-11.64L141.80-11.64Q141.91-11.88 142.27-11.88ZM153.13-15.08L153.13-15.08L153.13-15.08Q152.50-15 152.48-15.68L152.48-15.68L152.48-15.68Q152.46-16.37 151.95-16.48L151.95-16.48L151.95-16.48Q151.80-16.21 151.41-16.02L151.41-16.02L151.41-16.02Q151.45-16.60 151.02-16.48L151.02-16.48L151.02-16.48Q150.23-16.48 149.30-16.48L149.30-16.48L149.30-16.48Q149.30-13.75 149.30-11.02L149.30-11.02L149.30-11.02Q149.30-10.70 149.30-10.47L149.30-10.47L149.30-9.30L149.30-9.30Q149.30-7.89 149.30-6.56L149.30-6.56L149.30-6.56Q149.30-4.02 149.30-1.56L149.30-1.56L149.30-1.56Q153.16-1.56 156.88-1.56L156.88-1.56L156.88-1.56Q157.07-8.40 157.58-14.61L157.58-14.61L157.66-14.69L157.58-14.69L157.58-14.69Q157.62-15.35 157.66-16.02L157.66-16.02L157.66-16.02Q156.48-16.02 155.18-16.09L155.18-16.09L155.18-16.09Q153.87-16.17 152.89-15.86L152.89-15.86L152.89-15.86Q153.91-15.59 153.13-15.08ZM155.86-5L155.86-5L155.86-5Q155.78-5 155.70-5L155.70-5L155.70-5Q155.70-5.04 155.70-5.16L155.70-5.16L155.70-5.16Q155.78-5.16 155.86-5.16L155.86-5.16L155.86-5.16Q155.86-5.04 155.86-5ZM155.23-12.81L155.23-12.81L155.23-12.81Q155.12-8.59 155.23-5.31L155.23-5.31L155.23-5.31Q153.59-5.31 151.95-5.31L151.95-5.31L151.95-5.31Q151.95-6.02 151.95-6.56L151.95-6.56L152.03-6.56L152.19-12.73L154.06-12.81L154.06-12.81Q154.65-12.81 155.23-12.81Z"></path></g> <!----> <!----> <!----> <!----> <!----> <!----> <!----></g> <g class="tp-slogan" transform="translate(26.81500244140625,37.40187454223633)"><!----> <!----> <!----> <g><path transform="translate(-0.1875,8.578125)" d="M3.09-7.59L0.19-7.59L0.19-8.58L7.13-8.58L7.13-7.59L4.22-7.59L4.22 0L3.09 0L3.09-7.59ZM9-4.36L9-4.36L8.02-4.36L8.02-4.36Q8.06-6.47 10.59-6.47L10.59-6.47L10.59-6.47Q12.84-6.38 12.89-4.69L12.89-4.69L12.89-1.08L12.89-1.08Q12.89-0.70 13.27-0.70L13.27-0.70L13.27-0.70Q13.31-0.70 13.41-0.70L13.41-0.70L13.41-0.70Q13.55-0.75 13.64-0.75L13.64-0.75L13.64 0L13.64 0Q13.55 0 13.41 0L13.41 0L13.41 0Q13.17 0.05 13.03 0.05L13.03 0.05L13.03 0.05Q11.91 0.05 11.95-0.84L11.95-0.84L11.95-0.84Q11.02 0.09 9.66 0.09L9.66 0.09L9.66 0.09Q7.78 0 7.69-1.64L7.69-1.64L7.69-1.64Q7.73-3.33 9.61-3.61L9.61-3.61L11.34-3.80L11.34-3.80Q11.91-3.89 11.91-4.55L11.91-4.55L11.91-4.55Q11.91-5.58 10.41-5.58L10.41-5.58L10.41-5.58Q9.09-5.58 9-4.36ZM11.86-2.16L11.86-2.16L11.86-3.19L11.86-3.19Q11.48-2.95 10.13-2.77L10.13-2.77L10.13-2.77Q8.81-2.67 8.81-1.78L8.81-1.78L8.81-1.78Q8.81-0.70 9.89-0.70L9.89-0.70L9.89-0.70Q11.72-0.84 11.86-2.16ZM19.78-6.28L17.39-3.94L19.92 0L18.56 0L16.59-3.19L15.75-2.34L15.75 0L14.72 0L14.72-8.58L15.75-8.58L15.75-3.61L18.47-6.28L19.78-6.28ZM24.98-1.97L24.98-1.97L26.02-1.97L26.02-1.97Q25.83-0.89 24.89-0.23L24.89-0.23L24.89-0.23Q24.38 0.09 23.20 0.09L23.20 0.09L23.20 0.09Q20.53 0 20.39-2.95L20.39-2.95L20.39-2.95Q20.48-6.38 23.39-6.47L23.39-6.47L23.39-6.47Q26.06-6.42 26.11-2.77L26.11-2.77L21.52-2.77L21.52-2.77Q21.52-0.70 23.34-0.70L23.34-0.70L23.34-0.70Q24.66-0.80 24.98-1.97ZM21.52-3.61L21.52-3.61L25.03-3.61L25.03-3.61Q24.89-5.48 23.25-5.48L23.25-5.48L23.25-5.48Q21.70-5.34 21.52-3.61ZM32.91-1.13L32.95-1.13L34.59-6.28L35.77-6.28L35.77-6.28Q35.53-5.67 35.11-4.45L35.11-4.45L35.11-4.45Q34.08-1.59 33.52-0.14L33.52-0.14L33.52-0.14Q32.72 1.83 32.39 2.06L32.39 2.06L32.39 2.06Q32.06 2.48 31.03 2.44L31.03 2.44L31.03 2.44Q30.84 2.44 30.61 2.34L30.61 2.34L30.61 1.41L30.61 1.41Q30.66 1.41 30.70 1.45L30.70 1.45L30.70 1.45Q30.98 1.55 31.22 1.55L31.22 1.55L31.22 1.55Q31.83 1.78 32.34 0.09L32.34 0.09L30.05-6.28L31.22-6.28L32.91-1.13ZM36.33-3.14L36.33-3.14L36.33-3.14Q36.52-6.33 39.23-6.47L39.23-6.47L39.23-6.47Q41.95-6.33 42.14-3.14L42.14-3.14L42.14-3.14Q41.95 0 39.23 0.09L39.23 0.09L39.23 0.09Q36.52 0 36.33-3.14ZM37.41-3.14L37.41-3.14L37.41-3.14Q37.55-0.80 39.23-0.75L39.23-0.75L39.23-0.75Q40.92-0.80 41.06-3.14L41.06-3.14L41.06-3.14Q40.92-5.48 39.23-5.53L39.23-5.53L39.23-5.53Q37.55-5.48 37.41-3.14ZM48.42-6.28L48.42 0L47.44 0L47.44-0.89L47.39-0.94L47.39-0.94Q46.73 0.14 45.38 0.09L45.38 0.09L45.38 0.09Q43.41 0 43.36-1.78L43.36-1.78L43.36-6.28L44.44-6.28L44.44-2.11L44.44-2.11Q44.44-0.70 45.66-0.70L45.66-0.70L45.66-0.70Q47.25-0.75 47.39-2.81L47.39-2.81L47.39-6.28L48.42-6.28ZM51.19-3.66L51.19-3.66L51.19 0L50.11 0L50.11-6.28L51.14-6.28L51.14-5.20L51.14-5.20Q51.84-6.47 52.92-6.47L52.92-6.47L52.92-6.47Q53.02-6.47 53.11-6.42L53.11-6.42L53.11-6.42Q53.16-6.42 53.20-6.42L53.20-6.42L53.20-5.30L52.78-5.30L52.78-5.30Q51.28-5.20 51.19-3.66ZM56.91-3.14L56.91-3.14L56.91-3.14Q57.09-6.33 59.81-6.47L59.81-6.47L59.81-6.47Q62.53-6.33 62.72-3.14L62.72-3.14L62.72-3.14Q62.53 0 59.81 0.09L59.81 0.09L59.81 0.09Q57.09 0 56.91-3.14ZM57.98-3.14L57.98-3.14L57.98-3.14Q58.13-0.80 59.81-0.75L59.81-0.75L59.81-0.75Q61.50-0.80 61.64-3.14L61.64-3.14L61.64-3.14Q61.50-5.48 59.81-5.53L59.81-5.53L59.81-5.53Q58.13-5.48 57.98-3.14ZM67.45-4.88L67.41-4.88L66.23 0L65.11 0L63.33-6.28L64.45-6.28L65.63-1.31L65.67-1.31L66.89-6.28L68.06-6.28L69.28-1.31L69.33-1.31L70.55-6.28L71.63-6.28L69.80 0L68.72 0L67.45-4.88ZM77.63-4.27L77.63-4.27L77.63 0L76.59 0L76.59-3.84L76.59-3.84Q76.69-5.58 75.23-5.48L75.23-5.48L75.23-5.48Q73.64-5.39 73.59-3.42L73.59-3.42L73.59 0L72.52 0L72.52-6.28L73.55-6.28L73.55-5.39L73.55-5.39Q74.30-6.47 75.47-6.47L75.47-6.47L75.47-6.47Q77.58-6.42 77.63-4.27ZM84.84-6.28L84.84-5.39L83.81-5.39L83.81-1.31L83.81-1.31Q83.81-0.80 84.42-0.80L84.42-0.80L84.84-0.80L84.84 0L84.84 0Q84.56 0 84.19 0L84.19 0L84.19 0Q84.09 0 84.05 0L84.05 0L84.05 0Q82.69 0 82.73-1.22L82.73-1.22L82.73-5.39L81.94-5.39L81.94-6.28L82.73-6.28L82.73-8.02L83.81-8.02L83.81-6.28L84.84-6.28ZM85.88-6.28L86.95-6.28L86.95 0L85.88 0L85.88-6.28ZM86.95-8.58L86.95-7.41L85.88-7.41L85.88-8.58L86.95-8.58ZM89.53 0L88.45 0L88.45-6.28L89.48-6.28L89.48-5.39L89.48-5.39Q90.19-6.47 91.41-6.47L91.41-6.47L91.41-6.47Q92.48-6.47 93-5.48L93-5.48L93-5.48Q93.05-5.44 93.05-5.44L93.05-5.44L93.05-5.44Q93.89-6.52 94.97-6.47L94.97-6.47L94.97-6.47Q96.89-6.33 96.94-4.31L96.94-4.31L96.94 0L95.86 0L95.86-4.03L95.86-4.03Q95.91-5.53 94.69-5.48L94.69-5.48L94.69-5.48Q93.38-5.34 93.23-3.80L93.23-3.80L93.23 0L92.16 0L92.16-4.31L92.16-4.31Q92.16-5.48 91.17-5.48L91.17-5.48L91.17-5.48Q89.58-5.39 89.53-3.42L89.53-3.42L89.53 0ZM102.70-1.97L102.70-1.97L103.73-1.97L103.73-1.97Q103.55-0.89 102.61-0.23L102.61-0.23L102.61-0.23Q102.09 0.09 100.92 0.09L100.92 0.09L100.92 0.09Q98.25 0 98.11-2.95L98.11-2.95L98.11-2.95Q98.20-6.38 101.11-6.47L101.11-6.47L101.11-6.47Q103.78-6.42 103.83-2.77L103.83-2.77L99.23-2.77L99.23-2.77Q99.23-0.70 101.06-0.70L101.06-0.70L101.06-0.70Q102.38-0.80 102.70-1.97ZM99.23-3.61L99.23-3.61L102.75-3.61L102.75-3.61Q102.61-5.48 100.97-5.48L100.97-5.48L100.97-5.48Q99.42-5.34 99.23-3.61Z"></path></g></g></g></g></g></svg>